<?xml version="1.0" encoding="UTF-8" standalone="no"?><!DOCTYPE svg PUBLIC "-//W3C//DTD SVG 1.1//EN" "http://www.w3.org/Graphics/SVG/1.1/DTD/svg11.dtd"><svg width="100%" height="100%" viewBox="0 0 1087 1015" version="1.1" xmlns="http://www.w3.org/2000/svg" xmlns:xlink="http://www.w3.org/1999/xlink" xml:space="preserve" xmlns:serif="http://www.serif.com/" style="fill-rule:evenodd;clip-rule:evenodd;stroke-linejoin:round;stroke-miterlimit:2;"><g><g><path d="M235.31,357.868c0,-32.467 -26.36,-58.827 -58.828,-58.827l-117.655,0c-32.467,0 -58.827,26.36 -58.827,58.827l0,597.879c0,32.467 26.36,58.827 58.827,58.827l117.655,0c32.468,0 58.828,-26.36 58.828,-58.827l0,-597.879Z" style="fill:#115553;"/><path d="M401.373,789.69c-53.113,0 -96.233,43.121 -96.233,96.234c0,53.112 43.12,96.233 96.233,96.233l459.422,0c53.113,0 96.233,-43.121 96.233,-96.233c0,-53.113 -43.12,-96.234 -96.233,-96.234l-459.422,0Z" style="fill:#115553;"/><path d="M421.783,644.236c-47.149,0 -85.428,38.279 -85.428,85.428c0,47.149 38.279,85.428 85.428,85.428l475.032,0c47.149,0 85.428,-38.279 85.428,-85.428c0,-47.149 -38.279,-85.428 -85.428,-85.428l-475.032,0Z" style="fill:#115553;"/><path d="M412.179,500.123c-47.149,0 -85.428,38.279 -85.428,85.428c0,47.149 38.279,85.428 85.428,85.428l508.648,0c47.148,0 85.427,-38.279 85.427,-85.428c0,-47.149 -38.279,-85.428 -85.427,-85.428l-508.648,0Z" style="fill:#115553;"/><path d="M404.975,327.797c-56.425,0 -102.235,45.81 -102.235,102.236c0,56.425 45.81,102.235 102.235,102.235l579.697,0c56.426,0 102.236,-45.81 102.236,-102.235c0,-56.426 -45.81,-102.236 -102.236,-102.236l-579.697,0Z" style="fill:#115553;"/><path d="M318.137,349.293c-21.656,31.095 -9.709,65.166 12.29,92.225c50.946,62.662 69.109,10.64 90.764,-20.454l28.055,-40.285l105.799,1.387c0,0 51.938,-92.44 77.3,-137.58c17.76,-31.571 30.22,-65.841 36.885,-101.446c8.916,-48.708 7.945,-107.228 -37.85,-133.759c-29.998,-17.379 -69.109,-10.64 -90.764,20.455c-75.92,149.208 -149.661,245.514 -222.479,319.457Z" style="fill:#115553;"/><rect x="305.509" y="388.656" width="150.514" height="500.606" style="fill:#115553;"/></g></g></svg>